<svg xmlns="http://www.w3.org/2000/svg" viewBox="0 0 200 200" width="200" height="200">
  <!-- Copyright (c) Sankyu Lab -->
  <g fill="#e74c3c">
    <circle cx="100" cy="20" r="6"/>
    <circle cx="140" cy="30" r="6"/>
    <circle cx="170" cy="60" r="6"/>
    <circle cx="180" cy="100" r="6"/>
    <circle cx="170" cy="140" r="6"/>
  </g>
  <g fill="#3498db">
    <circle cx="140" cy="170" r="6"/>
    <circle cx="100" cy="180" r="6"/>
    <circle cx="60" cy="170" r="6"/>
    <circle cx="30" cy="140" r="6"/>
  </g>
  <g fill="#f1c40f">
    <circle cx="20" cy="100" r="6"/>
    <circle cx="30" cy="60" r="6"/>
    <circle cx="60" cy="30" r="6"/>
  </g>
  <g fill="#2ecc71">
    <circle cx="100" cy="55" r="8"/>
    <circle cx="130" cy="75" r="8"/>
    <circle cx="145" cy="100" r="8"/>
    <circle cx="130" cy="125" r="8"/>
  </g>
  <g fill="#9b59b6">
    <circle cx="100" cy="145" r="8"/>
    <circle cx="70" cy="125" r="8"/>
    <circle cx="55" cy="100" r="8"/>
    <circle cx="70" cy="75" r="8"/>
  </g>
  <circle cx="100" cy="100" r="18" fill="#2c3e50"/>
  <circle cx="100" cy="100" r="10" fill="#ecf0f1"/>
</svg>